<svg width="898" height="910" viewBox="0 0 898 910" fill="none" xmlns="http://www.w3.org/2000/svg">
<ellipse cx="449" cy="455" rx="449" ry="455" fill="#3035A1"/>
<g filter="url(#filter0_d_46_19)">
<path d="M201 322.5H124L218 675.5H295L361 447L424.5 675.5H527V261.5H721.5V675.5H750.5V235H503.5V389L458 558.5L398 322.5H324.5L259 558.5L201 322.5Z" fill="#FCC717"/>
<path d="M539.5 675.5V271L676.5 296.5V642L539.5 675.5Z" fill="#FCC717"/>
</g>
<ellipse cx="651" cy="466.5" rx="10.5" ry="11" fill="#3035A1"/>
<path d="M337.554 775L325.188 737.2H334.26L345.006 770.68H340.47L351.702 737.2H359.802L370.602 770.68H366.228L377.244 737.2H385.614L373.248 775H363.852L354.294 745.624H356.778L346.95 775H337.554ZM408.436 775.648C405.448 775.648 402.676 775.162 400.12 774.19C397.6 773.218 395.404 771.85 393.532 770.086C391.696 768.322 390.256 766.252 389.212 763.876C388.204 761.5 387.7 758.908 387.7 756.1C387.7 753.292 388.204 750.7 389.212 748.324C390.256 745.948 391.714 743.878 393.586 742.114C395.458 740.35 397.654 738.982 400.174 738.01C402.694 737.038 405.43 736.552 408.382 736.552C411.37 736.552 414.106 737.038 416.59 738.01C419.11 738.982 421.288 740.35 423.124 742.114C424.996 743.878 426.454 745.948 427.498 748.324C428.542 750.664 429.064 753.256 429.064 756.1C429.064 758.908 428.542 761.518 427.498 763.93C426.454 766.306 424.996 768.376 423.124 770.14C421.288 771.868 419.11 773.218 416.59 774.19C414.106 775.162 411.388 775.648 408.436 775.648ZM408.382 768.196C410.074 768.196 411.622 767.908 413.026 767.332C414.466 766.756 415.726 765.928 416.806 764.848C417.886 763.768 418.714 762.49 419.29 761.014C419.902 759.538 420.208 757.9 420.208 756.1C420.208 754.3 419.902 752.662 419.29 751.186C418.714 749.71 417.886 748.432 416.806 747.352C415.762 746.272 414.52 745.444 413.08 744.868C411.64 744.292 410.074 744.004 408.382 744.004C406.69 744.004 405.124 744.292 403.684 744.868C402.28 745.444 401.038 746.272 399.958 747.352C398.878 748.432 398.032 749.71 397.42 751.186C396.844 752.662 396.556 754.3 396.556 756.1C396.556 757.864 396.844 759.502 397.42 761.014C398.032 762.49 398.86 763.768 399.904 764.848C400.984 765.928 402.244 766.756 403.684 767.332C405.124 767.908 406.69 768.196 408.382 768.196ZM435.638 775V737.2H451.784C457.04 737.2 461.126 738.424 464.042 740.872C466.958 743.284 468.416 746.632 468.416 750.916C468.416 753.724 467.75 756.154 466.418 758.206C465.086 760.222 463.196 761.77 460.748 762.85C458.3 763.93 455.384 764.47 452 764.47H440.498L444.386 760.636V775H435.638ZM459.668 775L450.218 761.284H459.56L469.118 775H459.668ZM444.386 761.608L440.498 757.504H451.514C454.214 757.504 456.23 756.928 457.562 755.776C458.894 754.588 459.56 752.968 459.56 750.916C459.56 748.828 458.894 747.208 457.562 746.056C456.23 744.904 454.214 744.328 451.514 744.328H440.498L444.386 740.17V761.608ZM483.177 766.36L482.691 756.262L500.781 737.2H510.501L494.193 754.75L489.333 759.934L483.177 766.36ZM475.347 775V737.2H484.041V775H475.347ZM501.213 775L487.767 758.53L493.491 752.32L511.419 775H501.213ZM515.32 775V737.2H524.068V775H515.32ZM533.039 775V737.2H540.275L562.577 764.416H559.067V737.2H567.707V775H560.525L538.169 747.784H541.679V775H533.039Z" fill="#FCC717"/>
<defs>
<filter id="filter0_d_46_19" x="120" y="235" width="634.5" height="448.5" filterUnits="userSpaceOnUse" color-interpolation-filters="sRGB">
<feFlood flood-opacity="0" result="BackgroundImageFix"/>
<feColorMatrix in="SourceAlpha" type="matrix" values="0 0 0 0 0 0 0 0 0 0 0 0 0 0 0 0 0 0 127 0" result="hardAlpha"/>
<feOffset dy="4"/>
<feGaussianBlur stdDeviation="2"/>
<feComposite in2="hardAlpha" operator="out"/>
<feColorMatrix type="matrix" values="0 0 0 0 0 0 0 0 0 0 0 0 0 0 0 0 0 0 0.25 0"/>
<feBlend mode="normal" in2="BackgroundImageFix" result="effect1_dropShadow_46_19"/>
<feBlend mode="normal" in="SourceGraphic" in2="effect1_dropShadow_46_19" result="shape"/>
</filter>
</defs>
</svg>
